<?xml version="1.0" standalone="no"?><!DOCTYPE svg PUBLIC "-//W3C//DTD SVG 1.1//EN" "http://www.w3.org/Graphics/SVG/1.1/DTD/svg11.dtd"><svg t="1572249556853" class="icon" viewBox="0 0 1024 1024" version="1.1" xmlns="http://www.w3.org/2000/svg" p-id="14685" xmlns:xlink="http://www.w3.org/1999/xlink" width="200" height="200"><defs><style type="text/css"></style></defs><path d="M892.2 530c-19.3-56-51.6-108-96.1-154.6-46.5-48.6-96.1-80.8-128-98.6 2.2-1.9 4.4-3.9 6.6-6.1 18.4-18.2 40.6-51.4 42.3-106.5 0.7-22-7.5-41.7-23.6-56.9-23.7-22.4-65-35.7-122.8-39.6-41-2.8-75.4 0.3-76.8 0.4l-13.6 1.2-4.1 13c-0.1 0.4-2.9 9.4-7.6 25.2 12.8-1.1 25.3-3.1 38.2-1.2 2.3 0.3 4.4 0.9 6.3 1.6 13-0.5 33.1-0.9 54.9 0.6 46.7 3.1 81.3 13.3 97.5 28.5 7.7 7.2 11.1 15.5 10.8 25.9-2.3 75.9-52.7 94.9-56.2 96.2l-54.2 16 52.5 22.2c0.8 0.3 79.9 34.3 149.2 107.3 91 95.8 123.2 211 95.7 342.2-4 11.1-60.4 152.2-338 169.7-5.1 0.3-10 0.3-14.8 0.1-0.1 0-0.3 0.1-0.4 0.1-1.9 0.6-3.9 1-5.9 1.4-1.8 1.4-3.5 2.7-5.4 4-7.3 5.1-15.6 8.7-24.1 11.5-7.6 2.6-15.3 1.5-21.9-1.9-2.9 0.3-5.8 0.4-8.7 0.3-3.5-0.1-6.8-0.7-9.9-1.7 22.6 18.2 50.2 27.3 82.4 27.3 3.7 0 7.4-0.1 11.2-0.4 71.6-4.5 135.7-17.4 190.3-38.3 44.4-17 82.9-39.2 114.3-66.2 54.8-47.1 69.5-92.7 70.1-94.6l0.3-0.9 0.2-0.9c17-80 13.4-156.2-10.7-226.3z" p-id="14686" fill="#009cd3"></path><path d="M510.4 916.7c-0.1 0-0.3 0.1-0.4 0.1-1.9 0.6-3.9 1-5.9 1.4-1.8 1.4-3.5 2.7-5.4 4-7.3 5.1-15.6 8.7-24.1 11.5-7.6 2.6-15.3 1.5-21.9-1.9-2.9 0.3-5.8 0.4-8.7 0.3-3.5-0.1-6.8-0.7-9.9-1.7 22.6 18.2 50.2 27.3 82.4 27.3 3.7 0 7.4-0.1 11.2-0.4l-2.6-40.8c-5.1 0.5-10 0.5-14.7 0.2zM693.4 107.4c-23.7-22.4-65-35.7-122.8-39.6-41-2.8-75.4 0.3-76.8 0.4l-13.6 1.2-4.1 13c-0.1 0.4-2.9 9.4-7.6 25.2 12.8-1.1 25.3-3.1 38.2-1.2 2.3 0.3 4.4 0.9 6.3 1.6 13-0.5 33.1-0.9 54.9 0.6 46.7 3.1 81.3 13.3 97.5 28.5 7.7 7.2 11.1 15.5 10.8 25.9l40.9 1.3c0.6-22.1-7.6-41.7-23.7-56.9z" p-id="14687" fill="#009cd3"></path><path d="M580.7 939.2c-2.8 0-5.6-0.4-8.2-1.1-8.7 1.5-17.6 1.7-26.2 0.7-8.9-1-15.9-3.3-22.6-9.3-3.7-3.4-6.2-7.8-7.7-12.6-3.6 0.1-7.3 0-11.1-0.2-149.9-9.4-234-55.6-278.1-92.6-43.6-36.6-57.9-71.7-59.9-77.2-27.5-131.2 4.7-246.3 95.7-342.1 69.2-72.9 148.4-106.9 149.1-107.2l51.1-21.5-52.8-17c-0.5-0.2-53.7-18-56.1-96.1-0.3-10.4 3.1-18.6 10.8-25.9 16.1-15.2 50.5-25.3 96.9-28.5 20.3-1.4 39.2-1.2 52.3-0.7 0.1-0.1 0.2-0.2 0.4-0.3 0.7-0.5 1.5-0.3 2.1 0.1 2.8-0.6 5.8-0.7 8.9-0.6 4.6 0.1 9.2 0.1 13.8 0.1 0.9 0 1.7-0.1 2.6-0.1 6.3-0.1 13.2-0.1 19.9 0.9-4.7-16-7.6-25.2-7.7-25.5l-4.1-13-13.6-1.2c-1.4-0.1-35.8-3.2-76.8-0.4-57.7 3.9-99 17.2-122.8 39.6-16.1 15.2-24.3 34.9-23.6 56.9 1.7 55 23.9 88.3 42.3 106.5 2.2 2.2 4.4 4.2 6.6 6.1-31.9 17.8-81.5 50-128 98.6-44.3 46.4-76.7 98.4-96 154.4-24.1 70.1-27.8 146.3-10.7 226.6l0.2 0.9 0.3 0.9c0.6 1.9 15.3 47.5 70.1 94.6 31.4 27 69.8 49.2 114.3 66.2 54.7 20.9 118.7 33.8 190.3 38.3 3.8 0.2 7.5 0.4 11.2 0.4 26.7 0 50.2-6.3 70.4-18.8-1.2 0-2.2 0.1-3.3 0.1z" p-id="14688" fill="#009cd3"></path><path d="M580.7 939.2c-2.8 0-5.6-0.4-8.2-1.1-8.7 1.5-17.6 1.7-26.2 0.7-8.9-1-15.9-3.3-22.6-9.3-3.7-3.4-6.2-7.8-7.7-12.6-3.6 0.1-7.3 0-11.1-0.2l-2.6 40.8c3.8 0.2 7.5 0.4 11.2 0.4 26.7 0 50.2-6.3 70.4-18.8-1.1 0-2.1 0.1-3.2 0.1zM553.9 82.4l-4.1-13-13.6-1.2c-1.4-0.1-35.8-3.2-76.8-0.4-57.7 3.9-99 17.2-122.8 39.6-16.1 15.2-24.3 34.9-23.6 56.9l40.9-1.3c-0.3-10.4 3.1-18.6 10.8-25.9 16.1-15.2 50.5-25.3 96.9-28.5 20.3-1.4 39.2-1.2 52.3-0.7 0.1-0.1 0.2-0.2 0.4-0.3 0.7-0.5 1.5-0.3 2.1 0.1 2.8-0.6 5.8-0.7 8.9-0.6 4.6 0.1 9.2 0.1 13.8 0.1 0.9 0 1.7-0.1 2.6-0.1 6.3-0.1 13.2-0.1 19.9 0.9-4.7-16.1-7.5-25.2-7.7-25.6zM599.8 564.8H410.6c-11 0-20-9-20-20v-0.9c0-11 9-20 20-20h189.2c11 0 20 9 20 20v0.9c0 11-9 20-20 20zM599.8 645.2H410.6c-11 0-20-9-20-20v-0.9c0-11 9-20 20-20h189.2c11 0 20 9 20 20v0.9c0 11-9 20-20 20z" p-id="14689" fill="#009cd3"></path><path d="M529.4 549.5v189.2c0 11-9 20-20 20h-0.9c-11 0-20-9-20-20V549.5c0-11 9-20 20-20h0.9c11 0 20 9 20 20z" p-id="14690" fill="#009cd3"></path><path d="M463.2 458.4l51.5 66.8c6.7 8.7 5.1 21.3-3.6 28.1l-0.7 0.5c-8.7 6.7-21.3 5.1-28.1-3.6l-51.5-66.8c-6.7-8.7-5.1-21.3 3.6-28.1l0.7-0.5c8.8-6.7 21.4-5.1 28.1 3.6z" p-id="14691" fill="#009cd3"></path><path d="M552.2 460.5l-51.5 66.8c-6.7 8.7-5.1 21.3 3.6 28.1l0.7 0.5c8.7 6.7 21.3 5.1 28.1-3.6l51.5-66.8c6.7-8.7 5.1-21.3-3.6-28.1l-0.7-0.5c-8.8-6.7-21.4-5.1-28.1 3.6z" p-id="14692" fill="#009cd3"></path></svg>