<?xml version="1.0" standalone="no"?><!DOCTYPE svg PUBLIC "-//W3C//DTD SVG 1.1//EN" "http://www.w3.org/Graphics/SVG/1.1/DTD/svg11.dtd"><svg t="1572249516500" class="icon" viewBox="0 0 1024 1024" version="1.1" xmlns="http://www.w3.org/2000/svg" p-id="13824" xmlns:xlink="http://www.w3.org/1999/xlink" width="200" height="200"><defs><style type="text/css"></style></defs><path d="M445.988 909.937a26.015 26.015 0 0 1-24.003-15.929L155.3 262.195a25.882 25.882 0 0 1-0.138-19.937 25.897 25.897 0 0 1 14.003-14.193 26 26 0 0 1 34.125 13.845l0.276 0.604 266.43 631.234a26.076 26.076 0 0 1-13.85 34.13 25.795 25.795 0 0 1-10.138 2.054h-0.02z" p-id="13825" fill="#bfbfbf"></path><path d="M360.187 695.936a25.907 25.907 0 0 1-18.427-7.639 25.887 25.887 0 0 1-7.629-18.432c0-2.965 0.502-5.883 1.49-8.668 1.152-3.267 29.21-80.077 121.447-105.298 18.851-5.156 38.343-7.66 59.596-7.66 39.138 0 77.666 8.832 111.657 16.615 33.664 7.71 63.642 14.095 89.62 14.095 32.677 0 58.917-9.979 81.834-32.343l1.73-1.69 0.067-2.411-0.149-309.36-9.533 4.95c-26.102 14.67-57.493 25.805-93.312 33.101a205.107 205.107 0 0 1-40.735 4.204c-41.835 0-76.882-13.645-110.771-26.834-37.238-14.485-75.71-29.45-128.287-29.45-4.25 0-8.586 0.097-13.02 0.302-56.207 2.595-105.625 27.842-145.341 48.128-29.599 15.119-52.967 27.059-74.169 27.059a26.081 26.081 0 0 1-26.05-26.046 26.076 26.076 0 0 1 26.045-26.05c8.243-0.113 26.86-9.293 50.345-21.284 41.974-21.443 99.297-50.724 166.764-53.842a340.342 340.342 0 0 1 15.923-0.379c61.844 0 106.834 17.51 146.534 32.963 32.23 12.539 59.94 23.321 92.043 23.321 10.03 0 19.947-1.024 30.32-3.138 84.67-17.25 112.45-53.683 115.338-57.785l0.246-0.348 0.19-0.379c4.32-8.473 12.672-13.537 22.328-13.537 2.089 0 4.203 0.24 6.292 0.722 11.413 2.611 19.902 13.527 19.989 25.953 0 24.064 0.092 381.87 0.092 381.87s-1.992 11.735-5.97 16.226c-35.19 39.618-77.245 58.07-129.234 58.076-33.96 0-67.886-7.767-100.695-15.273-34.59-7.926-67.2-15.396-99.794-15.396-16.558 0-31.657 1.93-46.146 5.893-65.705 17.966-85.858 71.818-86.052 72.361a26.122 26.122 0 0 1-24.576 17.403z" p-id="13826" fill="#bfbfbf"></path></svg>