<?xml version="1.0" standalone="no"?><!DOCTYPE svg PUBLIC "-//W3C//DTD SVG 1.1//EN" "http://www.w3.org/Graphics/SVG/1.1/DTD/svg11.dtd"><svg t="1572249801028" class="icon" viewBox="0 0 1024 1024" version="1.1" xmlns="http://www.w3.org/2000/svg" p-id="19238" xmlns:xlink="http://www.w3.org/1999/xlink" width="200" height="200"><defs><style type="text/css"></style></defs><path d="M391.168 284.672c-65.536-1.024-126.976 2.048-185.344 33.792-58.368 31.744-102.4 92.16-128 151.552-22.528 54.272-41.984 140.288-19.456 198.656 20.48 53.248 86.016 80.896 135.168 100.352 132.096 51.2 281.6 13.312 407.552-38.912 73.728-30.72 145.408-69.632 215.04-109.568 58.368-34.816 131.072-76.8 167.936-136.192C1018.88 430.08 1003.52 368.64 960.512 324.608c-52.224-53.248-135.168-66.56-204.8-81.92-29.696-6.144-38.912 20.48-8.192 27.648 71.68 15.36 164.864 26.624 197.632 103.424 33.792 78.848-41.984 137.216-99.328 177.152C730.112 631.808 590.848 706.56 452.608 741.376c-73.728 18.432-153.6 33.792-227.328 9.216-35.84-13.312-92.16-33.792-112.64-68.608-19.456-32.768-12.288-83.968-6.144-119.808 11.264-67.584 41.984-131.072 90.112-180.224 60.416-59.392 132.096-67.584 212.992-66.56 33.792 0 2.048-30.72-18.432-30.72z" p-id="19239" fill="#bfbfbf"></path></svg>