<?xml version="1.0" standalone="no"?><!DOCTYPE svg PUBLIC "-//W3C//DTD SVG 1.1//EN" "http://www.w3.org/Graphics/SVG/1.1/DTD/svg11.dtd"><svg t="1572249988551" class="icon" viewBox="0 0 1024 1024" version="1.1" xmlns="http://www.w3.org/2000/svg" p-id="25160" xmlns:xlink="http://www.w3.org/1999/xlink" width="200" height="200"><defs><style type="text/css"></style></defs><path d="M756.5312 857.9072c-11.264 0-20.48-9.216-20.48-20.48v-152.3712c0-62.464-50.7904-113.4592-113.4592-113.4592H405.7088c-62.464 0-113.4592 50.7904-113.4592 113.4592v152.3712c0 11.264-9.216 20.48-20.48 20.48s-20.48-9.216-20.48-20.48v-152.3712c0-85.1968 69.2224-154.4192 154.4192-154.4192H622.592c85.1968 0 154.4192 69.2224 154.4192 154.4192v152.3712c0 11.264-9.216 20.48-20.48 20.48z" p-id="25161" fill="#bfbfbf"></path><path d="M514.048 564.6336c-109.3632 0-198.2464-88.8832-198.2464-198.2464s88.8832-198.2464 198.2464-198.2464 198.2464 88.8832 198.2464 198.2464-88.8832 198.2464-198.2464 198.2464z m0-355.328c-86.6304 0-157.2864 70.4512-157.2864 157.2864s70.4512 157.2864 157.2864 157.2864 157.2864-70.4512 157.2864-157.2864-70.4512-157.2864-157.2864-157.2864z" p-id="25162" fill="#bfbfbf"></path></svg>