<?xml version="1.0" standalone="no"?><!DOCTYPE svg PUBLIC "-//W3C//DTD SVG 1.1//EN" "http://www.w3.org/Graphics/SVG/1.1/DTD/svg11.dtd"><svg t="1572249228271" class="icon" viewBox="0 0 1024 1024" version="1.1" xmlns="http://www.w3.org/2000/svg" p-id="1840" xmlns:xlink="http://www.w3.org/1999/xlink" width="200" height="200"><defs><style type="text/css"></style></defs><path d="M525.866667 219.008a21.333333 21.333333 0 0 0-27.733334 0l-256 219.434667a21.333333 21.333333 0 0 0-7.466666 16.213333v321.706667a21.333333 21.333333 0 0 0 21.333333 21.333333h512a21.333333 21.333333 0 0 0 21.333333-21.333333v-321.706667a21.333333 21.333333 0 0 0-7.466666-16.213333l-256-219.434667z m27.776-32.384l256 219.434667a64 64 0 0 1 22.357333 48.597333v321.706667a64 64 0 0 1-64 64H256a64 64 0 0 1-64-64v-321.706667a64 64 0 0 1 22.357333-48.64l256-219.392a64 64 0 0 1 83.285334 0z" fill="#bfbfbf" p-id="1841"></path><path d="M405.333333 640h213.333334a21.333333 21.333333 0 1 1 0 42.666667h-213.333334a21.333333 21.333333 0 1 1 0-42.666667z" fill="#bfbfbf" p-id="1842"></path></svg>